<?xml version="1.0" encoding="UTF-8"?>
<!-- Generated by Pixelmator Pro 3.4.3 -->
<svg width="150" height="150" viewBox="0 0 150 150" xmlns="http://www.w3.org/2000/svg">
    <g id="Group">
        <path id="Path" fill="#4280ef" stroke="none" d="M 148.519226 76.797882 C 148.519226 71.732681 148.029053 66.504089 147.212082 61.60228 L 76.462624 61.60228 L 76.462624 90.522949 L 116.984245 90.522949 C 115.350311 99.836388 109.958328 108.006073 101.952034 113.23468 L 126.1343 132.024948 C 140.349548 118.790062 148.519226 99.509605 148.519226 76.797882 L 148.519226 76.797882 Z"/>
        <path id="path1" fill="#34a353" stroke="none" d="M 76.462624 149.99826 C 96.723442 149.99826 113.71637 143.299118 126.1343 131.861557 L 101.952034 113.23468 C 95.252892 117.809692 86.593025 120.424004 76.462624 120.424004 C 56.855381 120.424004 40.352615 107.189102 34.307049 89.542595 L 9.471212 108.659653 C 22.215918 133.985672 48.03212 149.99826 76.462624 149.99826 Z"/>
        <path id="path2" fill="#f6b704" stroke="none" d="M 34.307049 89.379204 C 31.20257 80.065758 31.20257 69.935349 34.307049 60.621902 L 9.471212 41.341461 C -1.14938 62.582634 -1.14938 87.581863 9.471212 108.659653 L 34.307049 89.379204 Z"/>
        <path id="path3" fill="#e54335" stroke="none" d="M 76.462624 29.740509 C 87.083214 29.577103 97.540405 33.661949 105.21991 41.014664 L 126.624474 19.446701 C 113.062805 6.701996 95.0895 -0.160538 76.462624 0.002853 C 48.03212 0.002853 22.215918 16.015442 9.471212 41.341461 L 34.307049 60.621902 C 40.352615 42.812004 56.855381 29.740509 76.462624 29.740509 Z"/>
    </g>
</svg>
