<svg width="138" height="34" viewBox="0 0 138 34" fill="none" xmlns="http://www.w3.org/2000/svg">
<path fill-rule="evenodd" clip-rule="evenodd" d="M17 34C26.3888 34 34 26.3888 34 17C34 7.61116 26.3888 0 17 0C7.61116 0 0 7.61116 0 17C0 21.4347 1.6981 25.4729 4.47956 28.4996L8.0477 8H28L26.8871 14.2833H14.089L13.0954 20.0833H23.6677L22.5946 26.3667H12.0223L10.9034 32.8741C12.7959 33.6014 14.8514 34 17 34Z" fill="#D7FA21"/>
<path d="M44.008 23V11.656H46.872V23H44.008ZM46.28 18.76V16.344H51.896V18.76H46.28ZM46.28 14.072V11.656H52.152V14.072H46.28ZM53.633 23V11.656H56.497V23H53.633ZM58.508 23V11.656H60.508L61.372 13.976V23H58.508ZM66.332 23L59.708 14.584L60.508 11.656L67.148 20.072L66.332 23ZM66.332 23L65.596 20.616V11.656H68.46V23H66.332Z" fill="#D7FA21"/>
<path d="M73.2288 23V11.736H76.0928V23H73.2288ZM69.7568 14.12V11.656H79.5648V14.12H69.7568ZM78.7073 23L83.1073 11.656H85.8753L90.2273 23H87.2353L83.9553 13.464H84.9953L81.6353 23H78.7073ZM81.3793 21.016V18.744H87.6353V21.016H81.3793ZM94.6538 23.176C93.7044 23.176 92.8778 23.032 92.1738 22.744C91.4804 22.456 90.8458 22.0027 90.2698 21.384L92.0778 19.56C92.4724 19.976 92.8938 20.296 93.3418 20.52C93.7898 20.7333 94.2964 20.84 94.8618 20.84C95.3418 20.84 95.7098 20.76 95.9658 20.6C96.2324 20.4293 96.3658 20.2 96.3658 19.912C96.3658 19.6453 96.2698 19.4267 96.0778 19.256C95.8858 19.0747 95.6298 18.92 95.3098 18.792C95.0004 18.6533 94.6538 18.5253 94.2698 18.408C93.8964 18.28 93.5178 18.1307 93.1338 17.96C92.7604 17.7787 92.4138 17.56 92.0938 17.304C91.7844 17.048 91.5338 16.728 91.3418 16.344C91.1498 15.96 91.0538 15.4853 91.0538 14.92C91.0538 14.1947 91.2244 13.576 91.5658 13.064C91.9178 12.552 92.4031 12.1573 93.0218 11.88C93.6404 11.6027 94.3604 11.464 95.1818 11.464C96.0031 11.464 96.7604 11.6027 97.4538 11.88C98.1471 12.1573 98.7178 12.5413 99.1658 13.032L97.3418 14.84C97.0004 14.4987 96.6538 14.2427 96.3018 14.072C95.9498 13.9013 95.5658 13.816 95.1498 13.816C94.7551 13.816 94.4458 13.8853 94.2218 14.024C93.9978 14.1627 93.8858 14.36 93.8858 14.616C93.8858 14.872 93.9818 15.08 94.1738 15.24C94.3658 15.4 94.6164 15.544 94.9258 15.672C95.2458 15.7893 95.5924 15.912 95.9658 16.04C96.3498 16.168 96.7284 16.3173 97.1018 16.488C97.4751 16.6587 97.8164 16.8773 98.1258 17.144C98.4458 17.4107 98.7018 17.7467 98.8938 18.152C99.0858 18.5573 99.1818 19.048 99.1818 19.624C99.1818 20.7547 98.7818 21.6293 97.9818 22.248C97.1924 22.8667 96.0831 23.176 94.6538 23.176ZM102.994 23V11.736H105.858V23H102.994ZM99.5224 14.12V11.656H109.33V14.12H99.5224ZM110.633 23V11.656H113.497V23H110.633ZM121.012 23.176C120.148 23.176 119.348 23.032 118.612 22.744C117.876 22.4453 117.231 22.0347 116.676 21.512C116.132 20.9787 115.705 20.3547 115.396 19.64C115.097 18.9253 114.948 18.152 114.948 17.32C114.948 16.4773 115.097 15.704 115.396 15C115.705 14.2853 116.132 13.6667 116.676 13.144C117.231 12.6213 117.871 12.2107 118.596 11.912C119.332 11.6133 120.127 11.464 120.98 11.464C121.876 11.464 122.681 11.608 123.396 11.896C124.111 12.1733 124.74 12.5627 125.284 13.064L123.364 14.984C123.097 14.6853 122.767 14.4507 122.372 14.28C121.977 14.1093 121.513 14.024 120.98 14.024C120.521 14.024 120.1 14.0987 119.716 14.248C119.343 14.3973 119.017 14.6213 118.74 14.92C118.463 15.208 118.244 15.5547 118.084 15.96C117.935 16.3653 117.86 16.8187 117.86 17.32C117.86 17.8213 117.935 18.2747 118.084 18.68C118.244 19.0853 118.463 19.4373 118.74 19.736C119.017 20.024 119.343 20.248 119.716 20.408C120.1 20.5573 120.521 20.632 120.98 20.632C121.513 20.632 121.983 20.552 122.388 20.392C122.793 20.2213 123.14 19.9813 123.428 19.672L125.348 21.592C124.793 22.0933 124.164 22.4827 123.46 22.76C122.767 23.0373 121.951 23.176 121.012 23.176ZM125.473 23L129.873 11.656H132.641L136.993 23H134.001L130.721 13.464H131.761L128.401 23H125.473ZM128.145 21.016V18.744H134.401V21.016H128.145Z" fill="white"/>
</svg>
